<svg width="406" height="306" viewBox="0 0 406 306" fill="none" xmlns="http://www.w3.org/2000/svg">
<path d="M156.442 60.7771C156.442 60.7771 153.468 67.0802 152.961 71.8C152.913 72.2587 152.956 72.7223 153.088 73.1642C153.22 73.6061 153.438 74.0176 153.729 74.375C154.021 74.7325 154.38 75.0288 154.786 75.2471C155.193 75.4653 155.638 75.6012 156.097 75.6468C158.482 75.8701 161.781 75.4743 163.791 72.2872L167.851 67.2934C168.562 66.2104 168.919 64.9328 168.872 63.6379C168.824 62.3429 168.375 61.0948 167.587 60.0666C164.877 56.0776 158.066 56.8389 156.442 60.7771Z" fill="#F4A28C"/>
<path d="M166.318 68.4607L167.962 91.2474L155.336 91.2576L159.111 75.0886L166.318 68.4607Z" fill="#F4A28C"/>
<path d="M157.964 61.65C159.957 62.4744 162.038 63.067 164.166 63.4161C163.254 64.0881 162.559 65.0122 162.166 66.0744C161.773 67.1367 161.699 68.2908 161.953 69.3945C162.182 70.4693 162.776 71.4315 163.635 72.1165C164.494 72.8015 165.564 73.1668 166.663 73.15L169.708 64.7052C170.173 63.509 170.305 62.2093 170.091 60.944C169.876 59.6787 169.323 58.4951 168.49 57.519C167.776 56.6704 167.01 55.867 166.196 55.1134C164.166 53.2458 159.994 53.5503 158.431 51.1143C158.272 50.8719 158.053 50.6748 157.794 50.5421C157.536 50.4093 157.249 50.3455 156.959 50.3567C156.669 50.368 156.386 50.4539 156.139 50.6062C155.892 50.7585 155.689 50.972 155.549 51.226C154.219 53.6417 153.194 57.8336 156.137 60.5031C156.678 60.9844 157.296 61.372 157.964 61.65Z" fill="#24285B"/>
<path d="M161.324 68.9377C161.324 68.9377 162.339 66.4408 164.125 67.334C165.912 68.2272 164.552 71.8507 161.852 71.2417L161.324 68.9377Z" fill="#F4A28C"/>
<path d="M154.777 64.8473L152.017 66.725C151.857 66.8257 151.726 66.965 151.635 67.1301C151.544 67.2951 151.496 67.4805 151.496 67.669C151.496 67.8574 151.544 68.0428 151.635 68.2079C151.726 68.373 151.857 68.5123 152.017 68.6129L154.341 70.0035L154.777 64.8473Z" fill="#F4A28C"/>
<path opacity="0.31" d="M159.01 75.5454C160.533 75.2733 161.954 74.5927 163.121 73.5763C163.121 73.5763 163.933 78.5193 157.924 80.1738L159.01 75.5454Z" fill="#CE8172"/>
<path d="M252.451 91.4504C271.426 91.4504 286.809 76.0679 286.809 57.0926C286.809 38.1173 271.426 22.7349 252.451 22.7349C233.476 22.7349 218.093 38.1173 218.093 57.0926C218.093 76.0679 233.476 91.4504 252.451 91.4504Z" fill="#24285B"/>
<path d="M226.7 65.4156L203.041 82.4778L235.896 76.5806L226.7 65.4156Z" fill="#24285B"/>
<path d="M86.001 94.6781C86.001 94.6781 57.2663 150.29 79.911 161.455C102.556 172.62 149.073 117.982 149.073 117.982L135.492 90.5166C135.492 90.5166 104.738 108.34 90.7004 138.11L93.0654 92.303L86.001 94.6781Z" fill="#A5A5A5"/>
<path opacity="0.2" d="M86.001 94.6781C86.001 94.6781 57.2663 150.29 79.911 161.455C102.556 172.62 149.073 117.982 149.073 117.982L135.492 90.5166C135.492 90.5166 104.738 108.34 90.7004 138.11L93.0654 92.303L86.001 94.6781Z" fill="white"/>
<path opacity="0.45" d="M219.758 288.99C301.797 288.99 368.303 278.192 368.303 264.873C368.303 251.554 301.797 240.757 219.758 240.757C137.718 240.757 71.2124 251.554 71.2124 264.873C71.2124 278.192 137.718 288.99 219.758 288.99Z" fill="#E6E6E6"/>
<path d="M317.573 132.05H192.373C186.907 132.05 182.477 136.481 182.477 141.947V228.009C182.477 233.474 186.907 237.905 192.373 237.905H317.573C323.039 237.905 327.469 233.474 327.469 228.009V141.947C327.469 136.481 323.039 132.05 317.573 132.05Z" fill="#C9C9C9"/>
<path d="M78.9974 89.7655C96.9861 89.7655 111.569 75.1828 111.569 57.1942C111.569 39.2055 96.9861 24.6228 78.9974 24.6228C61.0088 24.6228 46.4261 39.2055 46.4261 57.1942C46.4261 75.1828 61.0088 89.7655 78.9974 89.7655Z" fill="#D36820"/>
<path d="M78.9974 89.7655C96.9861 89.7655 111.569 75.1828 111.569 57.1942C111.569 39.2055 96.9861 24.6228 78.9974 24.6228C61.0088 24.6228 46.4261 39.2055 46.4261 57.1942C46.4261 75.1828 61.0088 89.7655 78.9974 89.7655Z" fill="#FFD200"/>
<path opacity="0.08" d="M78.9974 89.7655C96.9861 89.7655 111.569 75.1828 111.569 57.1942C111.569 39.2055 96.9861 24.6228 78.9974 24.6228C61.0088 24.6228 46.4261 39.2055 46.4261 57.1942C46.4261 75.1828 61.0088 89.7655 78.9974 89.7655Z" fill="black"/>
<path d="M88.2644 86.1927C106.253 86.1927 120.836 71.6101 120.836 53.6214C120.836 35.6327 106.253 21.05 88.2644 21.05C70.2757 21.05 55.6931 35.6327 55.6931 53.6214C55.6931 71.6101 70.2757 86.1927 88.2644 86.1927Z" fill="#FFD200"/>
<path opacity="0.33" d="M88.2644 75.8702C100.552 75.8702 110.513 65.909 110.513 53.6214C110.513 41.3337 100.552 31.3726 88.2644 31.3726C75.9767 31.3726 66.0156 41.3337 66.0156 53.6214C66.0156 65.909 75.9767 75.8702 88.2644 75.8702Z" fill="white"/>
<path d="M313.797 144.098H196.149C188.598 144.098 182.477 150.22 182.477 157.77V251.617C182.477 259.168 188.598 265.289 196.149 265.289H313.797C321.348 265.289 327.469 259.168 327.469 251.617V157.77C327.469 150.22 321.348 144.098 313.797 144.098Z" fill="#E6E6E6"/>
<path opacity="0.08" d="M238.667 132.05H263.027C263.027 132.05 276.435 194.483 233.338 209.586C190.241 224.689 217.098 265.289 217.098 265.289H193.652L186.09 255.769V227.176L180.274 198.675L193.621 145.398L207.933 133.471L238.667 132.05Z" fill="black"/>
<path d="M324.475 187.54H286.646C278.748 187.54 272.345 193.943 272.345 201.842V208.277C272.345 216.175 278.748 222.578 286.646 222.578H324.475C332.374 222.578 338.777 216.175 338.777 208.277V201.842C338.777 193.943 332.374 187.54 324.475 187.54Z" fill="#A5A5A5"/>
<path d="M288.747 212.611C292.996 212.611 296.441 209.166 296.441 204.917C296.441 200.668 292.996 197.224 288.747 197.224C284.498 197.224 281.053 200.668 281.053 204.917C281.053 209.166 284.498 212.611 288.747 212.611Z" fill="#E6E6E6"/>
<path d="M129.656 95.2769C131.159 93.3747 133.042 91.8065 135.184 90.6723C137.327 89.5381 139.682 88.8628 142.1 88.6896C152.565 87.9486 180.426 91.491 196.798 101.58C219.737 115.709 223.594 133.796 186.08 192.879L146.495 190.555C146.495 190.555 102.444 129.594 129.656 95.2769Z" fill="#12192C"/>
<path opacity="0.08" d="M177.483 109.72C177.483 109.72 169.018 129.655 180.274 147.275C191.53 164.896 160.543 191.408 160.543 191.408L184.73 192.879L189.379 187.561C189.379 187.561 207.121 158.4 210.694 145.946C214.266 133.492 193.154 126.793 193.154 126.793L177.483 109.72Z" fill="black"/>
<path d="M178.193 122.976C171.291 110.725 183.634 96.5863 196.778 101.58C217.961 109.629 249.477 127.483 244.371 161.465C236.789 211.982 198.483 196.401 198.483 196.401L198.077 186.322C198.077 186.322 222.508 186.881 222.752 161.962C222.935 143.581 188.597 141.449 178.193 122.976Z" fill="#A5A5A5"/>
<path opacity="0.2" d="M178.193 122.976C171.291 110.725 183.634 96.5863 196.778 101.58C217.961 109.629 249.477 127.483 244.371 161.465C236.789 211.982 198.483 196.401 198.483 196.401L198.077 186.322C198.077 186.322 222.508 186.881 222.752 161.962C222.935 143.581 188.597 141.449 178.193 122.976Z" fill="white"/>
<path d="M146.444 190.555L153.153 259.575H163.161L165.191 218.894C165.356 215.582 166.244 212.347 167.792 209.415C169.341 206.484 171.512 203.926 174.154 201.923L186.1 192.879L146.444 190.555Z" fill="#24285B"/>
<path d="M186.06 192.879L194.738 259.575L184.091 261.473L168.866 205.902L157.924 198.665L186.06 192.879Z" fill="#24285B"/>
<path d="M93.0654 92.303C93.0654 92.303 91.0963 85.675 79.8704 86.01C68.6445 86.3449 74.4604 100.961 93.0654 92.303Z" fill="#F4A28C"/>
<path d="M198.077 186.322C198.077 186.322 184.689 185.795 184.263 193.255C183.837 200.715 188.14 203.202 193.215 202.847C198.29 202.491 191.53 198.381 198.077 194.595V186.322Z" fill="#F4A28C"/>
<path d="M156.209 259.575C156.209 259.575 155.133 264.071 151.265 264.833C147.398 265.594 146.799 269.522 150.423 270.131C154.047 270.74 162.603 265.218 162.603 265.218L161.72 259.616L156.209 259.575Z" fill="#12192C"/>
<path d="M191.449 260.133C191.449 260.133 193.398 264.325 197.336 264.305C201.274 264.285 202.655 268.02 199.224 269.329C195.793 270.639 186.313 266.934 186.313 266.934L186.06 261.27L191.449 260.133Z" fill="#12192C"/>
<path d="M253.75 38.8739C254.765 38.8739 255.08 39.2291 255.08 40.2441V42.4163C259.14 42.9948 261.494 45.0248 263.2 48.5672C263.727 49.5822 263.504 50.2013 262.306 50.7291L260.145 51.7441C259.13 52.2313 258.642 52.008 258.115 50.9524C257.662 49.8509 256.867 48.9244 255.847 48.3102C254.827 47.6959 253.636 47.4266 252.451 47.542C248.695 47.542 246.97 48.6484 246.97 51.1656C246.97 52.8099 248.472 53.8248 250.015 54.1293C251.065 54.3632 252.13 54.526 253.202 54.6165C255.21 54.7172 257.192 55.107 259.089 55.7737C260.04 56.0745 260.925 56.5533 261.697 57.1845C262.481 58.0081 263.093 58.9801 263.495 60.0434C263.898 61.1067 264.084 62.2398 264.042 63.376C264.042 68.1973 260.814 71.496 255.11 72.3182V74.6121C255.11 75.6271 254.795 75.9823 253.78 75.9823H251.344C250.329 75.9823 249.974 75.6271 249.974 74.6121V72.3182C245.549 71.7396 242.585 69.4863 241.123 65.5075C241.032 65.3097 240.986 65.0937 240.989 64.8757C240.992 64.6576 241.045 64.4431 241.142 64.2481C241.24 64.0531 241.38 63.8825 241.552 63.7491C241.725 63.6157 241.925 63.5229 242.138 63.4775L244.3 62.6858C245.407 62.29 245.894 62.5539 246.381 63.7008C247.356 66.1774 249.345 67.4157 252.349 67.4157C256.409 67.4157 258.439 66.1266 258.439 63.5181C258.475 62.9135 258.306 62.3145 257.96 61.8174C257.614 61.3204 257.111 60.9542 256.531 60.7776C255.122 60.2838 253.648 59.9999 252.156 59.9352C250.108 59.7987 248.094 59.3396 246.188 58.5751C245.246 58.258 244.369 57.7731 243.6 57.1439C242.811 56.3579 242.192 55.4179 241.782 54.3824C241.371 53.347 241.178 52.2382 241.215 51.125C241.215 46.3545 244.26 43.1674 249.883 42.4163V40.2441C249.883 39.2291 250.238 38.8739 251.253 38.8739H253.75Z" fill="white"/>
</svg>
